<svg width="380" height="249" viewBox="0 0 380 249" xmlns="http://www.w3.org/2000/svg">

<rect x="2" y="2" width="376" height="245" rx="8"
fill="#1E1E2E"
stroke="#585B70"
stroke-width="4"/>

<style>
.title {
  fill: #CDD6F4;
  font-size: 18px;
  font-family: Verdana, sans-serif;
  font-weight: bold;
}

.subtitle {
  fill: #CBA6F7;
  font-size: 11px;
  font-family: Verdana, sans-serif;
  font-weight: 600;
}

.label {
  fill: #CDD6F4;
  font-size: 10px;
  font-family: Verdana, sans-serif;
  font-weight: 600;
}

.rotate {
  animation: spin 12s linear infinite;
  transform-origin: 70px 70px;
}

@keyframes spin {
  from { transform: rotate(0deg); }
  to { transform: rotate(360deg); }
}
</style>

<!-- Title -->
<text x="190" y="35" text-anchor="middle" class="title">
Most Used Technologies
</text>

<!-- GitHub Left Icon -->
<svg x="15" y="15" width="20" height="20" viewBox="0 0 16 16">
<path fill="#ffffff" d="M8 0C3.58 0 0 3.58 0 8c0 3.54 2.29 6.53 5.47 7.59.4.07.55-.17.55-.38 0-.19-.01-.82-.01-1.49-2.01.37-2.53-.49-2.69-.94-.09-.23-.48-.94-.82-1.13-.28-.15-.68-.52-.01-.53.63-.01 1.08.58 1.23.82.72 1.21 1.87.87 2.33.66.07-.52.28-.87.51-1.07-1.78-.2-3.64-.89-3.64-3.95 0-.87.31-1.59.82-2.15-.08-.2-.36-1.02.08-2.12 0 0 .67-.21 2.2.82.64-.18 1.32-.27 2-.27.68 0 1.36.09 2 .27 1.53-1.04 2.2-.82 2.2-.82.44 1.1.16 1.92.08 2.12.51.56.82 1.27.82 2.15 0 3.07-1.87 3.75-3.65 3.95.29.25.54.73.54 1.48 0 1.07-.01 1.93-.01 2.2 0 .21.15.46.55.38A8.013 8.013 0 0016 8c0-4.42-3.58-8-8-8z"/>
</svg>

<!-- GitHub Right Icon -->
<svg x="345" y="15" width="20" height="20" viewBox="0 0 16 16">
<path fill="#ffffff" d="M8 0C3.58 0 0 3.58 0 8c0 3.54 2.29 6.53 5.47 7.59.4.07.55-.17.55-.38 0-.19-.01-.82-.01-1.49-2.01.37-2.53-.49-2.69-.94-.09-.23-.48-.94-.82-1.13-.28-.15-.68-.52-.01-.53.63-.01 1.08.58 1.23.82.72 1.21 1.87.87 2.33.66.07-.52.28-.87.51-1.07-1.78-.2-3.64-.89-3.64-3.95 0-.87.31-1.59.82-2.15-.08-.2-.36-1.02.08-2.12 0 0 .67-.21 2.2.82.64-.18 1.32-.27 2-.27.68 0 1.36.09 2 .27 1.53-1.04 2.2-.82 2.2-.82.44 1.1.16 1.92.08 2.12.51.56.82 1.27.82 2.15 0 3.07-1.87 3.75-3.65 3.95.29.25.54.73.54 1.48 0 1.07-.01 1.93-.01 2.2 0 .21.15.46.55.38A8.013 8.013 0 0016 8c0-4.42-3.58-8-8-8z"/>
</svg>

<!-- Subtitle -->
<text x="20" y="65" class="subtitle">
Technology Distribution Across Projects
</text>

<!-- PIE CHART -->
<g transform="translate(220,65)">
<g class="rotate">

<!-- JavaScript 60% -->
<path d="M70,70 L70,0 A70,70 0 1,1 28.9,126.6 Z"
fill="#f1e05a"/>

<!-- Python 15% -->
<path d="M70,70 L28.9,126.6 A70,70 0 0,1 3.4,48.4 Z"
fill="#3572A5"/>

<!-- HTML 10% -->
<path d="M70,70 L3.4,48.4 A70,70 0 0,1 28.9,13.4 Z"
fill="#e34c26"/>

<!-- C++ 10% -->
<path d="M70,70 L28.9,13.4 A70,70 0 0,1 70,0 Z"
fill="#a855f7"/>

<!-- Other 5% -->
<path d="M70,70 L70,0 A70,70 0 0,1 70,0 Z"
fill="#9CA3AF"/>

<animateTransform
attributeName="transform"
attributeType="XML"
type="rotate"
from="0 70 70"
to="360 70 70"
dur="10s"
repeatCount="indefinite"/>

</g>

<!-- Donut Hole -->
<circle cx="70" cy="70" r="24" fill="#1E1E2E"/>

</g>

<!-- LEGEND -->
<g transform="translate(20,92)">

<rect width="14" height="14" rx="2" fill="#f1e05a"/>
<text x="24" y="11" class="label">JavaScript 60%</text>

<rect y="28" width="14" height="14" rx="2" fill="#3572A5"/>
<text x="24" y="39" class="label">Python 15%</text>

<rect y="56" width="14" height="14" rx="2" fill="#e34c26"/>
<text x="24" y="67" class="label">HTML 10%</text>

<rect y="84" width="14" height="14" rx="2" fill="#a855f7"/>
<text x="24" y="95" class="label">C++ 10%</text>

<rect y="112" width="14" height="14" rx="2" fill="#9CA3AF"/>
<text x="24" y="123" class="label">Other 5%</text>

</g>

</svg>
